<svg width="40" height="39" viewBox="0 0 40 39" fill="none" xmlns="http://www.w3.org/2000/svg">
<path d="M38.4619 0.540197C38.0902 0.300524 37.6746 0.135954 37.2389 0.05589C36.8032 -0.0241742 36.3558 -0.0181643 35.9224 0.0735763C35.489 0.165317 35.0781 0.340991 34.713 0.590562C34.348 0.840133 34.036 1.15871 33.795 1.5281L14.8864 30.4846L5.66495 22.0136C5.3396 21.7148 4.95819 21.4825 4.54249 21.3301C4.12679 21.1776 3.68495 21.1081 3.24218 21.1253C2.34797 21.1601 1.50429 21.5464 0.896751 22.1992C0.28921 22.8519 -0.0324304 23.7178 0.002587 24.6062C0.0376044 25.4946 0.426411 26.3328 1.08347 26.9364L13.1913 38.0581C13.1913 38.0581 13.5388 38.3554 13.6997 38.4593C14.0714 38.6991 14.4871 38.8638 14.9229 38.944C15.3588 39.0242 15.8063 39.0182 16.2398 38.9265C16.6733 38.8347 17.0844 38.659 17.4495 38.4093C17.8147 38.1596 18.1267 37.8409 18.3678 37.4714L39.4563 5.17685C39.6975 4.80757 39.8632 4.39468 39.9437 3.96178C40.0243 3.52888 40.0183 3.08444 39.9259 2.65386C39.8336 2.22328 39.6568 1.815 39.4056 1.45233C39.1544 1.08966 38.8337 0.779714 38.4619 0.540197Z" fill="#4BB34B"/>
</svg>
