<svg width="32" height="24" viewBox="0 0 32 24" fill="none" xmlns="http://www.w3.org/2000/svg">
<path d="M8.35556 10.2857C9.06667 6.85714 12.2667 4.28571 16 4.28571C18.6667 4.28571 20.8 5.48571 22.2222 7.37143L25.2444 3.94286C23.1111 1.54286 19.7333 0 16 0C9.77778 0 4.62222 4.45714 3.73333 10.2857H0L6.22222 17.1429L12.4444 10.2857H8.35556ZM25.7778 6.85714L19.5556 13.7143H23.6444C22.7556 17.1429 19.7333 19.7143 16 19.7143C13.3333 19.7143 11.2 18.5143 9.77778 16.6286L6.75556 19.8857C8.88889 22.4571 12.2667 24 16 24C22.2222 24 27.3778 19.5429 28.2667 13.7143H32L25.7778 6.85714Z" fill="white"/>
</svg>
