<svg width="72" height="72" viewBox="0 0 72 72" fill="none" xmlns="http://www.w3.org/2000/svg">
<path d="M40.47 16.44C43.77 16.44 46.47 13.74 46.47 10.44C46.47 7.14 43.77 4.44 40.47 4.44C37.17 4.44 34.47 7.14 34.47 10.44C34.47 13.74 37.17 16.44 40.47 16.44ZM29.67 58.14L32.67 44.94L38.97 50.94V68.94H44.97V46.44L38.67 40.44L40.47 31.44C44.37 35.94 50.37 38.94 56.97 38.94V32.94C51.27 32.94 46.47 29.94 44.07 25.74L41.07 20.94C39.87 19.14 38.07 17.94 35.97 17.94C35.07 17.94 34.47 18.24 33.57 18.24L17.97 24.84V38.94H23.97V28.74L29.37 26.64L24.57 50.94L9.87 47.94L8.67 53.94L29.67 58.14Z" fill="#3F8AE0"/>
</svg>
